<svg xmlns="http://www.w3.org/2000/svg" width="196" height="196" version="1.0" viewBox="0 0 1960 1960"><defs/><g fill="#0280cf"><path d="M896 1833l-79-127 6-121c12-230 60-449 149-677 51-129 124-269 144-275 17-6 176 149 232 225 27 37 64 95 83 129l34 61-34 84c-74 184-356 705-434 801l-22 27-79-127zM590 1275c-94-206-177-441-167-469 9-22 164-113 251-147 83-32 231-68 279-69h29l-45 51c-78 89-162 265-258 539l-57 165-32-70zM1490 704c-61-50-170-109-270-145-62-22-63-24-35-30a464 464 0 01376 87c11 13 2 135-10 133-3 0-31-21-61-45zM391 528c0-13 6-45 12-73 10-43 17-53 49-68 70-34 185-51 266-40 87 13 202 66 247 114 22 24 25 30 11 25-59-21-208-38-291-33-107 7-173 25-238 67l-52 30c-3 0-5-10-4-22zM1056 407a681 681 0 00-206-205c-90-43-183-47-274-12-16 6-31 9-33 6-10-9 108-100 172-131C821 13 897-4 1010 3c158 9 278 63 390 176 56 57 130 170 130 198 0 6-22 6-56-1-80-14-195 5-298 49l-86 35c-3 0-18-24-34-53z"/></g></svg>