<svg xmlns="http://www.w3.org/2000/svg" viewBox="0 0 14 14.001">
  <defs>
    <style>
      .cls-1 {
        fill: #666;
      }
    </style>
  </defs>
  <path id="info" class="cls-1" d="M7-32a6.852,6.852,0,0,1,1.859.252,7.054,7.054,0,0,1,1.673.707,7.011,7.011,0,0,1,1.415,1.094,7.012,7.012,0,0,1,1.094,1.415,7.055,7.055,0,0,1,.707,1.674A6.853,6.853,0,0,1,14-25a6.853,6.853,0,0,1-.252,1.859,7.055,7.055,0,0,1-.707,1.674,7.012,7.012,0,0,1-1.094,1.415,7.011,7.011,0,0,1-1.415,1.094,7.054,7.054,0,0,1-1.673.707A6.852,6.852,0,0,1,7-18a6.852,6.852,0,0,1-1.859-.252,7.054,7.054,0,0,1-1.673-.707,7.012,7.012,0,0,1-1.415-1.094A7.01,7.01,0,0,1,.961-21.467a7.072,7.072,0,0,1-.707-1.67A6.84,6.84,0,0,1,0-25a6.853,6.853,0,0,1,.252-1.859,7.057,7.057,0,0,1,.707-1.674,7.01,7.01,0,0,1,1.094-1.415,7.012,7.012,0,0,1,1.415-1.094,7.07,7.07,0,0,1,1.67-.707A6.839,6.839,0,0,1,7-32Zm.467,10.267H6.535v.933h.933Zm.058-1.232a2.456,2.456,0,0,1,.051-.51.908.908,0,0,1,.263-.452q.284-.284.561-.543a4.743,4.743,0,0,0,.5-.543,2.539,2.539,0,0,0,.357-.62,2.039,2.039,0,0,0,.135-.766,2.3,2.3,0,0,0-.19-.93,2.447,2.447,0,0,0-.514-.758,2.446,2.446,0,0,0-.758-.514,2.3,2.3,0,0,0-.93-.19,2.3,2.3,0,0,0-.93.19,2.447,2.447,0,0,0-.758.514,2.446,2.446,0,0,0-.514.758,2.3,2.3,0,0,0-.19.93H5.66a1.3,1.3,0,0,1,.106-.521,1.362,1.362,0,0,1,.288-.427,1.362,1.362,0,0,1,.427-.288A1.3,1.3,0,0,1,7-27.741a1.3,1.3,0,0,1,.521.106,1.362,1.362,0,0,1,.427.288,1.362,1.362,0,0,1,.288.427,1.3,1.3,0,0,1,.106.521,1.023,1.023,0,0,1-.139.532,2.44,2.44,0,0,1-.346.448q-.208.215-.448.434a4.026,4.026,0,0,0-.448.481,2.507,2.507,0,0,0-.346.594,2.006,2.006,0,0,0-.138.777v.467h1.05Z" transform="translate(-0.002 32)"/>
</svg>
