<svg xmlns="http://www.w3.org/2000/svg" viewBox="0 0 482.68 148.39">
  <defs>
    <style>
      .cls-2{fill:#fff}
    </style>
  </defs>
  <g id="Capa_2" data-name="Capa 2">
    <g id="Arcade">
      <path id="_0280cfff" fill="#1f76b7" d="M29.81 2.51a44.73 44.73 0 0 1 56.78 26.85 33.23 33.23 0 0 0-16.54-.74 57.43 57.43 0 0 0-17.13 6.46 53.56 53.56 0 0 0-9.44-13.38c-4.36-4.47-9.88-8.12-16.14-9.13-5.78-1-11.73.49-16.83 3.24a44.85 44.85 0 0 1 19.3-13.3zM2.29 30.29a40.46 40.46 0 0 1 23.82-3.81 37.25 37.25 0 0 1 20 10.59 83.62 83.62 0 0 0-20.72-3.15c-7.33-.08-14.88 1.3-21.2 5.19a30.9 30.9 0 0 0-4.15 3 45.29 45.29 0 0 1 2.25-11.82zm425.31 3.59a7.29 7.29 0 1 1-5 5 7.28 7.28 0 0 1 5-5zM57.85 40.56a38.22 38.22 0 0 1 18.65.09 35.15 35.15 0 0 1 12.73 6.51 74.81 74.81 0 0 1-1.36 10.23c-5.05-5.69-11.68-9.71-18.59-12.74a97.72 97.72 0 0 0-11.43-4.09zM2.1 60.79A81.47 81.47 0 0 1 44.72 44.6a43.33 43.33 0 0 0-8.08 10.23 143.64 143.64 0 0 0-10 20.86c-3.38 8.51-6.3 17.2-8.92 26A254.88 254.88 0 0 1 6.87 76.54 129.24 129.24 0 0 1 2.1 60.79zM46 64a126.55 126.55 0 0 1 8.65-16.62 80.81 80.81 0 0 1 26.48 32.16 296 296 0 0 1-14.3 31.09c-6.8 12.92-14.17 25.56-22.21 37.76l-12-19.28A161 161 0 0 1 46 64zm410.57-10.87a26.12 26.12 0 0 1 14.49 1 15 15 0 0 1 8.81 8.38l-9.81 4a7.8 7.8 0 0 0-3.06-3.36 10.25 10.25 0 0 0-8.59-.77 4.33 4.33 0 0 0-2.45 1.95 2.47 2.47 0 0 0 .75 3 10.65 10.65 0 0 0 3 1.44c4.65 1.51 9.67 1.89 14 4.19a13.12 13.12 0 0 1 5.84 5.74 14.42 14.42 0 0 1 1.28 5.29 13.31 13.31 0 0 1-1.9 6.13c-2.41 3.9-6.68 6.32-11.08 7.28a26.83 26.83 0 0 1-11.32-.12 19.67 19.67 0 0 1-10.13-5.89 19.4 19.4 0 0 1-3.4-5.69l10.16-4.35a11 11 0 0 0 4.16 5 10.2 10.2 0 0 0 6.17 1.45 7.37 7.37 0 0 0 5.27-2.08 2.91 2.91 0 0 0 .1-3.52 5.51 5.51 0 0 0-2.57-1.8c-4.68-1.84-9.92-1.8-14.44-4.11a12.85 12.85 0 0 1-6.8-7.48 11.74 11.74 0 0 1 1.58-9.66c2.28-3.33 6.13-5.23 10-6.06zm-32.64.87h11.39v42.49h-11.39z" data-name="#0280cfff"/>
      <path id="_ffffffff" d="M233.45 34.26h11.38v16.68a65.72 65.72 0 0 1-.69 8.15h.67a13.91 13.91 0 0 1 8.59-6 19.24 19.24 0 0 1 13.36 1.78 21.89 21.89 0 0 1 10.8 14.27c1.66 7 .47 14.81-3.9 20.62a20.94 20.94 0 0 1-8.66 6.73 19.39 19.39 0 0 1-11 1.05 13.78 13.78 0 0 1-9.18-6.16h-.69v5.12h-10.68V34.26m19.31 29.15a10.94 10.94 0 0 0-7.14 5.59 13.27 13.27 0 0 0-1.43 7.51 12 12 0 0 0 4.37 8.5 11.22 11.22 0 0 0 16.91-3.77 13.37 13.37 0 0 0 1.25-8.24 11.82 11.82 0 0 0-5.72-8.48 11.19 11.19 0 0 0-8.21-1.11zm-62.82-5a21.6 21.6 0 0 1 12.45-5.68 23.14 23.14 0 0 1 14 2.76 18.89 18.89 0 0 1 8.09 9.79A27.19 27.19 0 0 1 226 77.86h-32a11.19 11.19 0 0 0 3.91 7.38 12.73 12.73 0 0 0 10.47 2.27 11.66 11.66 0 0 0 7.69-6l9.46 4.7a22.1 22.1 0 0 1-21.85 11.6 22.35 22.35 0 0 1-13.56-5.52A21.76 21.76 0 0 1 183.4 81a25.2 25.2 0 0 1-.07-11.1 22.62 22.62 0 0 1 6.61-11.54M200 63a11 11 0 0 0-5.4 6.8h20.6a9.36 9.36 0 0 0-7.2-7.62 11.81 11.81 0 0 0-8 .83zm103.15-10.31a24.24 24.24 0 0 1 13.16 2.25 20.93 20.93 0 0 1 9.54 9.47 24.77 24.77 0 0 1 2.26 14.14 22.33 22.33 0 0 1-5.42 12.15 21.87 21.87 0 0 1-12.88 6.88 24.85 24.85 0 0 1-14.26-1.87 20.93 20.93 0 0 1-9.3-8.48 24.5 24.5 0 0 1-2.79-16.12 21.51 21.51 0 0 1 19.69-18.42M303 63.41a10.87 10.87 0 0 0-7.17 5.85 14.41 14.41 0 0 0-1.06 8.74 11.09 11.09 0 0 0 21.91 0 13.79 13.79 0 0 0-2.08-10.52 11.12 11.12 0 0 0-11.6-4.07zm42.46-9.88a30.76 30.76 0 0 1 13.83-.36c4.24.82 8.41 3 10.86 6.62s3 7.89 2.95 12.06v24.64h-11.22V92h-.69a19.38 19.38 0 0 1-5.06 4.31 14.54 14.54 0 0 1-7.7 1.58 16.55 16.55 0 0 1-11.83-5.3 14.31 14.31 0 0 1-3.07-12.36 13.51 13.51 0 0 1 6.54-8.8 22 22 0 0 1 12.3-2.56 28.47 28.47 0 0 1 9.51 2 7.77 7.77 0 0 0-1.65-5.87c-2.93-3.36-8-3.91-12.05-2.45a13.49 13.49 0 0 0-5.67 4.2l-8.26-5.65a21.67 21.67 0 0 1 11.2-7.54m4.91 23.83a7.5 7.5 0 0 0-4.53 2.5 5.34 5.34 0 0 0-.56 6 6.81 6.81 0 0 0 3.85 2.79 10.38 10.38 0 0 0 10-2.7 9.76 9.76 0 0 0 2.77-6.76 19 19 0 0 0-11.53-1.86zm42.16-24.23a26.07 26.07 0 0 1 14.83 1.17 14.91 14.91 0 0 1 8.49 8.25l-9.81 4a7.81 7.81 0 0 0-3-3.36 10.2 10.2 0 0 0-8.81-.73 3.79 3.79 0 0 0-2.4 2.27 2.53 2.53 0 0 0 1.17 2.78 20.15 20.15 0 0 0 6 2.12c4.19 1 8.63 1.72 12.27 4.21a12 12 0 0 1 5.46 9.61c.23 4.25-2.21 8.25-5.58 10.69a21.08 21.08 0 0 1-12.95 3.75A22.13 22.13 0 0 1 385.38 94a18.8 18.8 0 0 1-6.46-8.33l10.16-4.35a10.91 10.91 0 0 0 4.34 5.14 10.37 10.37 0 0 0 6.24 1.34 7.22 7.22 0 0 0 5-2.06 2.9 2.9 0 0 0 .11-3.52 5.61 5.61 0 0 0-2.6-1.83c-4.66-1.81-9.89-1.79-14.39-4.09a12.81 12.81 0 0 1-6.78-7.46 11.75 11.75 0 0 1 1.58-9.65c2.28-3.33 6.12-5.23 10-6.06zm-281 .84h12.77l7 26.66h.6L140.38 54h11.73l8.51 26.66h.6L168.17 54h12.6l-13.63 42.49h-12.25l-8.51-26.83h-.61l-8.5 26.83h-12.09L111.55 54z" class="cls-2" data-name="#ffffffff"/>
      <path d="M350.24 122.71q2.75 2.49 2.75 7.5V144h-5.19v-2.9a6.33 6.33 0 0 1-2.87 2.35 11.33 11.33 0 0 1-4.51.81 11.06 11.06 0 0 1-4.61-.9 7 7 0 0 1-3.05-2.5 6.35 6.35 0 0 1-1.08-3.63 6.2 6.2 0 0 1 2.35-5.07q2.36-1.91 7.4-1.91h6.07v-.35a4.79 4.79 0 0 0-1.48-3.78 6.34 6.34 0 0 0-4.37-1.32 12.7 12.7 0 0 0-3.89.62 9.49 9.49 0 0 0-3.22 1.71l-2.16-4a13.31 13.31 0 0 1 4.44-2.15 19.68 19.68 0 0 1 5.49-.75q5.19 0 7.93 2.48zm-5 16.61a5.15 5.15 0 0 0 2.27-2.7v-2.72h-5.67c-3.16 0-4.75 1-4.75 3.11a2.82 2.82 0 0 0 1.19 2.38 5.48 5.48 0 0 0 3.3.88 7.08 7.08 0 0 0 3.65-.95zM373.59 120.23v5.23a6.75 6.75 0 0 0-1.27-.13 6.61 6.61 0 0 0-5 1.87 7.43 7.43 0 0 0-1.8 5.38V144H360v-23.5h5.22v3.42q2.41-3.69 8.37-3.69zM382.25 142.73a11.35 11.35 0 0 1-4.53-4.29 12.69 12.69 0 0 1 0-12.41 11.5 11.5 0 0 1 4.51-4.26 13.72 13.72 0 0 1 6.56-1.54 12.62 12.62 0 0 1 6.09 1.41 9.13 9.13 0 0 1 3.93 4l-4.22 2.46a6.68 6.68 0 0 0-2.52-2.44 7.39 7.39 0 0 0-8.42 1.19 8.09 8.09 0 0 0 0 10.67 7.42 7.42 0 0 0 8.44 1.19 6.61 6.61 0 0 0 2.52-2.44l4.22 2.46a9.53 9.53 0 0 1-4 4.07 12.39 12.39 0 0 1-6 1.42 13.78 13.78 0 0 1-6.58-1.49zM420.45 122.71q2.74 2.49 2.74 7.5V144H418v-2.9a6.36 6.36 0 0 1-2.88 2.35 11.24 11.24 0 0 1-4.5.81 11 11 0 0 1-4.61-.9 7.13 7.13 0 0 1-3.06-2.5 6.34 6.34 0 0 1-1.07-3.63 6.2 6.2 0 0 1 2.35-5.07q2.34-1.91 7.4-1.91h6.06v-.35a4.82 4.82 0 0 0-1.47-3.78 6.36 6.36 0 0 0-4.37-1.32 12.61 12.61 0 0 0-3.89.62 9.64 9.64 0 0 0-3.23 1.71l-2.15-4A13.31 13.31 0 0 1 407 121a19.58 19.58 0 0 1 5.49-.75c3.51-.02 6.13.81 7.96 2.46zm-5 16.61a5.14 5.14 0 0 0 2.26-2.7v-2.72H412q-4.74 0-4.74 3.11a2.79 2.79 0 0 0 1.19 2.38 5.45 5.45 0 0 0 3.29.88 7.09 7.09 0 0 0 3.7-.95zM453.42 111.36V144h-5.27v-3a8.51 8.51 0 0 1-3.36 2.51 11.34 11.34 0 0 1-4.42.83 12.28 12.28 0 0 1-6.08-1.49 10.68 10.68 0 0 1-4.24-4.24 13.64 13.64 0 0 1 0-12.59 10.67 10.67 0 0 1 4.24-4.21 12.29 12.29 0 0 1 6.08-1.5 11.3 11.3 0 0 1 4.26.79 8.58 8.58 0 0 1 3.3 2.38v-12zm-8.83 27.3a6.45 6.45 0 0 0 2.5-2.57 8.58 8.58 0 0 0 0-7.73 6.51 6.51 0 0 0-2.5-2.57 7.49 7.49 0 0 0-7.12 0 6.51 6.51 0 0 0-2.5 2.57 8.5 8.5 0 0 0 0 7.73 6.45 6.45 0 0 0 2.5 2.57 7.49 7.49 0 0 0 7.12 0zM482.59 134h-18.41a6.38 6.38 0 0 0 2.53 4.11 8.27 8.27 0 0 0 5.07 1.52 8.54 8.54 0 0 0 6.37-2.55l3 3.38a10 10 0 0 1-4 2.86 15.93 15.93 0 0 1-12.26-.57 11.15 11.15 0 0 1-4.55-4.29 12.07 12.07 0 0 1-1.6-6.21 12.29 12.29 0 0 1 1.56-6.18 11.07 11.07 0 0 1 4.33-4.28 12.66 12.66 0 0 1 6.24-1.54 12.29 12.29 0 0 1 6.12 1.52 10.68 10.68 0 0 1 4.22 4.26 12.94 12.94 0 0 1 1.52 6.35q-.05.55-.14 1.62zm-16.23-7.79a6.52 6.52 0 0 0-2.22 4.15h13.31a6.44 6.44 0 0 0-2.15-4.13 6.53 6.53 0 0 0-4.48-1.58 6.61 6.61 0 0 0-4.46 1.54zM304.83 117H276.2a14.31 14.31 0 1 0 10.22 24.33h8.19A14.31 14.31 0 1 0 304.83 117zm-20 16.1a1.07 1.07 0 0 1-1.07 1.07h-4.65v4.66a1.08 1.08 0 0 1-1.08 1.07h-3.58a1.07 1.07 0 0 1-1.07-1.07v-4.66h-4.65a1.07 1.07 0 0 1-1.07-1.07v-3.58a1.07 1.07 0 0 1 1.07-1.07h4.65v-4.65a1.08 1.08 0 0 1 1.07-1.08H278a1.09 1.09 0 0 1 1.08 1.08v4.65h4.65a1.07 1.07 0 0 1 1.07 1.07zm16.46 6.08a4.29 4.29 0 1 1 4.3-4.29 4.29 4.29 0 0 1-4.34 4.31zm7.16-7.15a4.3 4.3 0 1 1 4.3-4.3 4.3 4.3 0 0 1-4.34 4.32zM113.75 125.84h131.76v10.81H113.75z" class="cls-2"/>
    </g>
  </g>
</svg>
