<svg xmlns="http://www.w3.org/2000/svg" viewBox="0 0 500 500">
  <style>
    .st0{fill:#0280cf}.st1{fill:#fff}
  </style>
  <path d="M364.8 318.6C407 289.1 434 243.8 434 193c0-88.7-82.4-160.7-184-160.7S66 104.3 66 193c0 63 41.5 117.5 102 143.9 2.3-12.5 31.2-164.2 75.1-201.2-4.6-1-36.6.9-48.9 7.8-7 3.9-18.4 13.8-27.7 15.5-9.3 1.6-18.4-2.2-18.9-13.1s5.4-18.3 16.2-25.5c21.4-14.2 82-2.2 82-2.2S224.5 95 200 94.7s-43.8 8.2-43.8 8.2-5 1.2-6-4.7 14-24.1 30.5-29 34.7-4.4 53.5 9.3C253 92.1 261.5 115 261.5 115s23.9-15.7 52-15.2 38.1 12.6 37.6 26.5-9 14.2-9 14.2-4.9 0-8-2.3-10.6-9.8-20.3-11.6c-9.8-1.8-32.2-2.8-39.4-.8 52.8 18.5 61.8 35 65.9 42.5s15.7 25 13.6 51.5-21.9 20.1-25.5 7.7-10.3-31.7-23.9-48.9-38.3-37.6-38.3-37.6-24.1 26.5-38.3 95.6c-13.2 64-9.7 108.4-9.2 114.7 10.2 1.5 20.6 2.3 31.3 2.3 16.1 0 31.7-1.8 46.5-5.2 41.7 45.3 96.8 37.6 96.8 37.6s-37.5-43.2-28.5-67.4zM499 408.3H39c-17.8 0-32.2 14.4-32.2 32.2V499H499v-90.7z" class="st0"/>
  <path d="M76.2 457.5c0-3.1.6-6.2 1.7-9.2s2.8-5.7 4.9-8.1 4.8-4.3 7.9-5.8 6.6-2.2 10.6-2.2c4.7 0 8.7 1 12.2 3.1 3.4 2.1 6 4.7 7.6 8l-7.6 5.2c-.7-1.4-1.5-2.6-2.4-3.6-1-1-2-1.8-3.1-2.3-1.1-.6-2.2-1-3.4-1.3s-2.4-.4-3.5-.4c-2.5 0-4.7.5-6.5 1.5s-3.4 2.3-4.6 3.9-2.1 3.4-2.8 5.5c-.6 2-.9 4.1-.9 6.1 0 2.2.4 4.4 1.1 6.5s1.7 3.9 3 5.5 2.9 2.8 4.7 3.8 3.9 1.4 6.1 1.4c1.1 0 2.3-.1 3.6-.4 1.2-.3 2.4-.7 3.5-1.4 1.1-.6 2.2-1.4 3.1-2.4 1-1 1.7-2.2 2.3-3.5l8.1 4.7c-.8 1.9-2 3.6-3.5 5.1s-3.2 2.7-5.1 3.7-3.9 1.8-6.1 2.3-4.3.8-6.3.8c-3.6 0-7-.8-10-2.3s-5.6-3.5-7.8-6-3.9-5.3-5.1-8.4c-1.1-3.4-1.7-6.5-1.7-9.8zM162.4 483.3h-9.6v-21.1c0-3-.5-5.2-1.6-6.6s-2.7-2.1-4.7-2.1c-.9 0-1.8.2-2.7.6-1 .4-1.9.9-2.7 1.6-.9.7-1.6 1.5-2.4 2.5-.7 1-1.2 2-1.6 3.2v21.9h-9.6V431h9.6v21.7c1.4-2.4 3.3-4.3 5.6-5.6 2.4-1.3 5-2 7.9-2 2.4 0 4.4.4 6 1.3 1.5.8 2.7 1.9 3.6 3.3s1.5 3 1.8 4.7c.3 1.8.5 3.6.5 5.5v23.4zM181.1 484c-1.8 0-3.5-.3-5.1-.9s-2.9-1.4-4.1-2.5-2-2.3-2.7-3.8c-.6-1.4-1-3-1-4.7 0-1.8.4-3.4 1.2-4.9s1.9-2.8 3.3-3.8c1.4-1.1 3.1-1.9 5.1-2.5s4.1-.9 6.5-.9c1.7 0 3.3.1 4.9.4s3 .7 4.3 1.2v-2.2c0-2.5-.7-4.4-2.1-5.7s-3.5-2-6.3-2c-2 0-4 .4-5.9 1.1s-3.9 1.8-5.9 3.2l-2.9-6.1c4.8-3.2 10-4.8 15.6-4.8 5.4 0 9.6 1.3 12.6 4s4.5 6.5 4.5 11.5v11.7c0 1 .2 1.7.5 2.2.4.4.9.7 1.8.7v8.2c-1.6.3-3 .5-4.2.5-1.8 0-3.2-.4-4.2-1.2s-1.6-1.9-1.8-3.2l-.2-2.1c-1.7 2.2-3.7 3.9-6.1 5-2.5 1.1-5.1 1.6-7.8 1.6zm2.7-7c1.6 0 3.2-.3 4.6-.9 1.5-.6 2.6-1.3 3.4-2.3 1.1-.8 1.6-1.7 1.6-2.7v-4.3c-1.1-.4-2.4-.8-3.7-1-1.3-.3-2.6-.4-3.9-.4-2.5 0-4.5.6-6.1 1.7s-2.4 2.5-2.4 4.3c0 1.6.6 3 1.9 4.1 1.3 1 2.8 1.5 4.6 1.5zM234.2 481.4c-1.3.6-2.9 1.1-4.7 1.7-1.9.6-3.8.9-5.9.9-1.3 0-2.6-.2-3.8-.5s-2.2-.9-3.1-1.6-1.6-1.7-2.1-2.9-.8-2.6-.8-4.3v-21.6h-4.9v-7.4h4.9v-12.2h9.6v12.2h7.9v7.4h-7.9v18.4c0 1.3.3 2.3 1 2.8.7.6 1.5.8 2.5.8s2-.2 2.9-.5c1-.3 1.7-.6 2.3-.9l2.1 7.7zM240.2 483.3v-50.9h22.5c2.3 0 4.5.5 6.5 1.5s3.7 2.3 5.1 3.9 2.6 3.4 3.4 5.5c.8 2 1.2 4.1 1.2 6.1 0 3.3-.8 6.3-2.5 9s-3.9 4.7-6.7 5.8l11.6 19.1h-11.1l-10.4-17.1H250v17.1h-9.8zm9.9-25.7h12.4c.9 0 1.8-.2 2.5-.6.8-.4 1.5-1 2-1.8.6-.7 1-1.6 1.4-2.6.3-1 .5-2.1.5-3.2 0-1.2-.2-2.3-.6-3.3s-.9-1.9-1.5-2.6-1.4-1.3-2.2-1.7-1.7-.6-2.5-.6h-12v16.4zM303.2 484c-3.1 0-5.8-.5-8.2-1.6s-4.5-2.5-6.2-4.3-3-3.9-3.9-6.2-1.4-4.8-1.4-7.4.5-5.1 1.4-7.5c.9-2.3 2.2-4.4 3.9-6.2s3.8-3.2 6.2-4.3 5.2-1.6 8.2-1.6c3.1 0 5.8.5 8.2 1.6s4.5 2.5 6.2 4.3 3 3.9 3.9 6.2 1.4 4.8 1.4 7.5c0 2.6-.5 5-1.4 7.4-.9 2.3-2.2 4.4-3.9 6.2s-3.7 3.2-6.2 4.3c-2.4 1.1-5.1 1.6-8.2 1.6zm-9.8-19.4c0 1.7.3 3.2.8 4.6s1.2 2.5 2.1 3.5 1.9 1.8 3.1 2.3 2.5.8 3.9.8 2.7-.3 3.9-.8 2.2-1.3 3.1-2.3 1.6-2.2 2.1-3.6.8-2.9.8-4.6c0-1.6-.3-3.1-.8-4.5s-1.2-2.6-2.1-3.6-1.9-1.8-3.1-2.3-2.5-.8-3.9-.8-2.7.3-3.9.9-2.2 1.4-3.1 2.4-1.6 2.2-2.1 3.6-.8 2.8-.8 4.4zM346.7 484c-3.1 0-5.8-.5-8.2-1.6s-4.5-2.5-6.2-4.3-3-3.9-3.9-6.2-1.4-4.8-1.4-7.4.5-5.1 1.4-7.5c.9-2.3 2.2-4.4 3.9-6.2s3.8-3.2 6.2-4.3 5.2-1.6 8.2-1.6c3.1 0 5.8.5 8.2 1.6s4.5 2.5 6.2 4.3 3 3.9 3.9 6.2 1.4 4.8 1.4 7.5c0 2.6-.5 5-1.4 7.4-.9 2.3-2.2 4.4-3.9 6.2s-3.7 3.2-6.2 4.3c-2.4 1.1-5.2 1.6-8.2 1.6zm-9.8-19.4c0 1.7.3 3.2.8 4.6s1.2 2.5 2.1 3.5 1.9 1.8 3.1 2.3 2.5.8 3.9.8 2.7-.3 3.9-.8 2.2-1.3 3.1-2.3 1.6-2.2 2.1-3.6.8-2.9.8-4.6c0-1.6-.3-3.1-.8-4.5s-1.2-2.6-2.1-3.6-1.9-1.8-3.1-2.3-2.5-.8-3.9-.8-2.7.3-3.9.9-2.2 1.4-3.1 2.4-1.6 2.2-2.1 3.6-.8 2.8-.8 4.4zM431.2 483.3h-9.6v-21.1c0-3-.5-5.2-1.5-6.6s-2.5-2.1-4.3-2.1c-1.9 0-3.7.7-5.4 2.2s-2.9 3.4-3.6 5.7v21.9h-9.6v-21.1c0-3-.5-5.2-1.5-6.6s-2.5-2.1-4.3-2.1c-1.9 0-3.6.7-5.3 2.2s-2.9 3.3-3.6 5.7v21.9h-9.6v-37.6h8.7v7c1.4-2.4 3.3-4.3 5.7-5.6s5.2-2 8.3-2c3.2 0 5.6.8 7.3 2.3s2.8 3.4 3.3 5.7c1.5-2.6 3.5-4.6 5.8-5.9 2.3-1.4 5-2 8-2 2.3 0 4.2.4 5.7 1.3s2.6 2 3.4 3.4 1.4 3 1.7 4.7c.3 1.8.5 3.6.5 5.4v23.3z" class="st1"/>
</svg>
