<svg xmlns="http://www.w3.org/2000/svg" viewBox="0 0 500 500" version="1.1" id="svg8"><style id="style2"></style><path id="rect892" d="M4.53 496.9H496.1V5.33a489.97 489.97 123.21 01-109.66 167.49L172.01 387.26A489.95 489.95 146.79 014.53 496.9z" fill="#0280cf" fill-opacity="1" stroke-width="0" stroke-linecap="square" stroke-linejoin="round" stroke-opacity="0"/><path id="path6" d="M130.19 382.09c-2.2-2.2-3.96-4.81-5.3-7.71a24.54 24.54 0 01-.78-18.88 23.93 23.93 0 015.94-9.05c3.32-3.32 6.85-5.45 10.81-6.43 3.9-.92 7.57-.92 11.04.28l-1.7 9.05c-1.49-.5-2.9-.78-4.24-.85-1.42 0-2.7.14-3.82.57a14.04 14.04 0 00-6.08 3.67 13.28 13.28 0 00-3.54 5.66 14.5 14.5 0 00-.5 6.01 19 19 0 005.6 10.82 20.63 20.63 0 005.37 3.82c1.98.99 3.96 1.55 6 1.77 2.06.2 4.04-.08 6.02-.64a12.46 12.46 0 005.3-3.32c.78-.78 1.56-1.7 2.26-2.83.64-1.06 1.2-2.2 1.49-3.47.35-1.2.56-2.54.5-3.89 0-1.41-.36-2.75-.86-4.1l9.05-2.4c.78 1.9 1.14 3.96 1.14 6.08s-.36 4.17-1 6.22a24.8 24.8 0 01-2.68 5.94c-1.2 1.91-2.48 3.6-3.89 5.02a22.28 22.28 0 01-8.7 5.45 25.45 25.45 0 01-9.76 1.27c-3.32-.21-6.5-1-9.54-2.33a31.1 31.1 0 01-8.13-5.73zm79.2-42.71l-6.8 6.79-14.92-14.92c-2.12-2.12-4.03-3.33-5.8-3.54a5.67 5.67 0 00-4.8 1.84 6.6 6.6 0 00-1.49 2.33c-.42 1-.7 1.98-.77 3.04-.15 1.14-.08 2.2.07 3.47a12 12 0 001.13 3.4l15.48 15.48-6.79 6.79-36.98-36.98 6.8-6.8 15.34 15.35c-.71-2.69-.71-5.37 0-7.92a16.26 16.26 0 014.17-7c1.7-1.7 3.4-2.83 5.16-3.32a9.54 9.54 0 014.88-.21c1.62.35 3.18 1.06 4.6 2.05 1.48 1.06 2.9 2.19 4.24 3.53l16.54 16.55zm13.71-12.73a14.4 14.4 0 01-4.24 2.97c-1.56.7-3.04 1.06-4.67 1.13-1.63.07-3.04-.21-4.6-.78a11.97 11.97 0 01-4.03-2.61 10.16 10.16 0 01-2.61-4.32c-.5-1.62-.64-3.32-.36-5.02.22-1.76.85-3.53 1.84-5.37a22.2 22.2 0 013.96-5.23 24.32 24.32 0 017.64-5.37l-1.56-1.56c-1.76-1.77-3.6-2.62-5.51-2.55-1.91.07-3.89 1.06-5.87 3.04a17.13 17.13 0 00-3.4 4.95 26.5 26.5 0 00-1.9 6.44l-6.37-2.27a27.58 27.58 0 017.64-14.42c3.82-3.82 7.7-5.87 11.74-6.08 4.03-.21 7.78 1.41 11.31 4.95l8.27 8.27a4.2 4.2 0 001.91 1.2c.57 0 1.13-.14 1.77-.77l5.8 5.8a23.7 23.7 0 01-2.62 3.32c-1.27 1.27-2.54 1.98-3.82 2.12a4.94 4.94 0 01-3.53-1l-1.63-1.33c.36 2.75.14 5.37-.78 7.84a19.12 19.12 0 01-4.38 6.65zm-3.04-6.86a11.8 11.8 0 002.62-3.89c.63-1.48.92-2.76.77-4.03.22-1.34-.07-2.33-.77-3.04l-3.04-3.04a20 20 0 00-3.33 1.91c-1.13.7-2.12 1.56-3.04 2.48a10.47 10.47 0 00-3.1 5.51 4.97 4.97 0 001.33 4.74 5.16 5.16 0 004.25 1.55 7.26 7.26 0 004.31-2.19zm38.75-32.53c-.5 1.35-1.27 2.83-2.12 4.53a19.16 19.16 0 01-3.54 4.8c-.92.93-1.98 1.7-3.04 2.34-1.06.64-2.19.92-3.32 1.06a7.03 7.03 0 01-3.54-.56 11 11 0 01-3.6-2.48l-15.28-15.27-3.46 3.46-5.23-5.23 3.46-3.46-8.63-8.63 6.8-6.79 8.62 8.63 5.59-5.59 5.23 5.23-5.59 5.6 13.01 13c.92.92 1.84 1.42 2.69 1.27.92-.07 1.63-.5 2.33-1.2a9.3 9.3 0 001.7-2.4c.5-.92.78-1.63.99-2.26zm5.59-2.9l-36-35.99 15.91-15.9a14.43 14.43 0 015.66-3.54 16.5 16.5 0 016.36-.85c2.13.14 4.25.57 6.3 1.48 1.98.85 3.75 2.06 5.16 3.47a16.5 16.5 0 014.6 8.13c.7 3.11.56 6.08-.64 8.84l21.7 5.3-7.84 7.85-19.45-4.74-6.93 6.93 12.1 12.1zm-11.18-25.17l8.77-8.77a5.14 5.14 0 001.35-2.19c.28-.85.35-1.77.14-2.68a9.17 9.17 0 00-.85-2.83c-.5-.92-1.13-1.84-1.91-2.62a9.34 9.34 0 00-5.66-2.69c-.92-.07-1.9.07-2.76.36-.84.28-1.62.78-2.19 1.34l-8.48 8.49zm56.22-18.88a19.36 19.36 0 01-14.36 6.01 19.13 19.13 0 01-7.14-1.62 20.28 20.28 0 01-6.22-4.25 21.23 21.23 0 01-4.31-6.29 19.13 19.13 0 01-1.63-7.14c-.07-2.48.42-4.95 1.34-7.43.92-2.47 2.55-4.8 4.67-6.92a19.36 19.36 0 0114.35-6.02c2.48.08 4.88.64 7.15 1.63a20.42 20.42 0 0110.53 10.54 18.59 18.59 0 01.28 14.57 19.36 19.36 0 01-4.66 6.92zm-20.65-6.79c1.2 1.2 2.48 2.06 3.82 2.7 1.34.63 2.62.91 3.96.98a8.67 8.67 0 003.82-.56 10.07 10.07 0 005.52-5.52c.49-1.2.63-2.47.56-3.82a10.68 10.68 0 00-1.06-4.03 13.44 13.44 0 00-6.44-6.43 10.68 10.68 0 00-4.03-1.06 8.67 8.67 0 00-3.82.56c-1.2.5-2.33 1.2-3.32 2.2a8.6 8.6 0 00-2.12 3.39 10.68 10.68 0 00.57 7.92 12.73 12.73 0 002.54 3.67zm51.4-23.97a19.36 19.36 0 01-14.35 6.01 19.13 19.13 0 01-7.14-1.62 20.28 20.28 0 01-6.22-4.24 21.23 21.23 0 01-4.31-6.3 19.13 19.13 0 01-1.63-7.14c-.07-2.47.42-4.95 1.34-7.42.92-2.48 2.55-4.81 4.67-6.93a19.36 19.36 0 0114.35-6.01c2.48.07 4.88.63 7.15 1.62a20.42 20.42 0 0110.53 10.54 18.59 18.59 0 01.28 14.57 19.68 19.68 0 01-4.66 6.92zm-20.64-6.78c1.2 1.2 2.48 2.05 3.82 2.68 1.34.64 2.61.92 3.96 1a8.67 8.67 0 003.82-.57 10.06 10.06 0 005.52-5.52c.49-1.2.63-2.47.56-3.82a10.68 10.68 0 00-1.06-4.03 13.44 13.44 0 00-6.44-6.43 10.68 10.68 0 00-4.03-1.06 8.67 8.67 0 00-3.82.56c-1.2.5-2.33 1.2-3.32 2.2a8.6 8.6 0 00-2.12 3.39 10.68 10.68 0 00.57 7.92 12.73 12.73 0 002.54 3.68zm79.9-53.46l-6.78 6.79-14.92-14.92c-2.13-2.12-4.04-3.33-5.73-3.61a5.04 5.04 0 00-4.53 1.56 8 8 0 00-2.26 5.37c-.14 2.26.35 4.45 1.48 6.58l15.49 15.48-6.79 6.79-14.92-14.92c-2.12-2.12-4.03-3.32-5.73-3.6a5.04 5.04 0 00-4.52 1.55c-1.34 1.34-2.05 3.04-2.2 5.3-.13 2.27.29 4.39 1.5 6.58l15.48 15.48-6.8 6.8-26.58-26.6 6.15-6.15 4.95 4.95c-.7-2.68-.7-5.37.07-7.99.78-2.61 2.27-5.09 4.46-7.28 2.26-2.26 4.52-3.4 6.79-3.54 2.26-.14 4.38.43 6.36 1.7-.78-2.9-.78-5.73-.07-8.27.64-2.62 2.12-4.95 4.24-7.07 1.63-1.63 3.26-2.69 4.95-3.11a9.24 9.24 0 014.81 0c1.56.42 3.11 1.13 4.53 2.12 1.48 1.06 2.9 2.19 4.17 3.46l16.47 16.48z" fill="#fff" stroke="#000" stroke-opacity="1" stroke-width="2" stroke-miterlimit="4" stroke-dasharray="none"/><path id="path4" d="M369.88 261.6c-65.3 0-118.26 46.27-118.26 103.28 0 40.49 26.67 75.52 65.56 92.48 1.47-8.03 20.05-105.53 48.26-129.3-2.96-.65-23.52.57-31.43 5-4.5 2.51-11.82 8.88-17.8 9.97-5.98 1.03-11.82-1.42-12.15-8.42-.32-7 3.48-11.76 10.42-16.39 13.75-9.13 52.7-1.41 52.7-1.41s-13.7-14.91-29.44-15.1c-15.74-.2-28.15 5.26-28.15 5.26s-3.21.77-3.85-3.02c-.65-3.79 9-15.49 19.6-18.64 10.6-3.14 22.3-2.82 34.38 5.98 12.08 8.74 17.55 23.46 17.55 23.46s15.36-10.09 33.42-9.77c18.06.32 24.48 8.1 24.16 17.03-.32 8.94-5.78 9.13-5.78 9.13s-3.15 0-5.14-1.48c-2-1.48-6.82-6.3-13.05-7.45-6.3-1.16-20.7-1.8-25.32-.52 33.93 11.9 39.72 22.5 42.35 27.32 2.64 4.82 10.09 16.06 8.74 33.1-1.35 17.03-14.07 12.91-16.39 4.94-2.31-7.97-6.62-20.37-15.36-31.43-8.74-11.05-24.61-24.16-24.61-24.16s-15.5 17.03-24.62 61.44c-8.48 41.13-6.23 69.67-5.91 73.72 6.55.96 13.24 1.47 20.12 1.47a133.5 133.5 0 0029.88-3.34c26.8 29.12 62.21 24.17 62.21 24.17s-24.1-27.77-18.31-43.32c27.12-18.96 44.47-48.07 44.47-80.72 0-57-52.96-103.28-118.25-103.28z" fill="#fff" fill-opacity="1" stroke-width=".64"/></svg>