<svg viewBox="0 0 64 64" xmlns="http://www.w3.org/2000/svg" fill-rule="evenodd" clip-rule="evenodd" stroke-linejoin="round" stroke-miterlimit="2"><path d="M19.77 36.74L1.57 54.81A5.39 5.39 0 005.42 64c1.44 0 2.81-.57 3.83-1.58l18.2-18.07c-.03-.01-2.27-1.46-4.27-3.44a31.8 31.8 0 01-3.4-4.17zM41.63 0C29.36 0 19.26 10.03 19.26 22.22c0 12.18 10.1 22.21 22.37 22.21C53.9 44.43 64 34.4 64 22.22 64 10.02 53.9 0 41.63 0zm-.02 4.97h.02C51.16 4.97 59 12.76 59 22.22s-7.83 17.24-17.36 17.24a17.38 17.38 0 01-17.36-17.24c0-9.45 7.82-17.23 17.34-17.25z" fill="#02abff" fill-rule="nonzero"/></svg>