<svg xmlns="http://www.w3.org/2000/svg" viewBox="0 0 231.104 231.104">
  <path d="M4.453 173.33c9.763-1.192 19.663.092 29.426-1.512 4.904-.779 9.396-2.429 13.842-4.171-11-7.058-20.901-15.125-30.113-24.796-3.3-3.438-.917-9.213 3.896-9.35 3.942.183 7.792-.137 11.55-.917-9.58-12.146-17.005-25.209-22.78-39.876-1.558-3.942 3.025-7.929 6.738-6.738 2.154.871 4.354 1.467 6.6 1.925-6.829-16.409-8.25-32.955-4.446-51.106.871-4.171 6.371-5.179 9.167-2.429 21.909 21.541 49.593 31.9 79.202 36.85-2.613-20.259 11.78-41.801 30.663-48.86 15.676-5.821 36.714-1.833 47.256 11.367 7.059-4.446 16.821-5.913 24.659-7.288 4.125-.688 8.113 3.346 5.684 7.425-2.842 4.767-5.546 9.854-8.525 14.713 6.05-1.788 12.284-2.888 18.517-3.667 4.492-.596 7.196 6.325 3.759 9.075-7.288 5.821-14.53 12.467-22.276 17.784-.229 51.472-15.263 94.649-61.235 123.937-38.319 24.477-109.546 20.352-142.867-12.97h-.046c-1.467-.367-2.246-1.467-2.521-2.658-1.283-1.925-.367-4.308 1.329-5.225.642-.78 1.467-1.376 2.521-1.513z" fill="#3fa9f5"/>
</svg>
