<svg xmlns="http://www.w3.org/2000/svg" xmlns:xlink="http://www.w3.org/1999/xlink" width="400" height="400" version="1.0"><defs><linearGradient id="J"><stop offset="0" stop-opacity="0"/><stop offset=".82" stop-opacity=".02"/><stop offset=".9" stop-opacity=".15"/><stop offset=".91" stop-opacity=".21"/><stop offset=".96" stop-opacity=".25"/><stop offset="1" stop-opacity=".33"/></linearGradient><linearGradient id="I"><stop offset="0" stop-color="#b3b3b3"/><stop offset="1" stop-color="#b3b3b3" stop-opacity="0"/></linearGradient><linearGradient id="G"><stop offset="0"/><stop offset="1" stop-opacity="0"/></linearGradient><linearGradient id="s"><stop offset="0" stop-color="#fff"/><stop offset="1" stop-color="#fff" stop-opacity="0"/></linearGradient><linearGradient id="j"><stop offset="0" stop-color="#b4b4b4"/><stop offset="1" stop-color="#b3b3b3" stop-opacity="0"/></linearGradient><linearGradient id="e"><stop offset="0" stop-color="#afafaf"/><stop offset="1" stop-color="#e6e6e6" stop-opacity="0"/></linearGradient><linearGradient id="d"><stop offset="0" stop-color="#afafaf"/><stop offset="1" stop-color="#e6e6e6" stop-opacity="0"/></linearGradient><linearGradient id="a"><stop offset="0" stop-color="#999"/><stop offset="1" stop-color="#999" stop-opacity="0"/></linearGradient><linearGradient id="b"><stop offset="0" stop-color="#b3b3b3"/><stop offset="1" stop-color="#b3b3b3" stop-opacity="0"/></linearGradient><linearGradient id="c"><stop offset="0" stop-color="gray"/><stop offset="1" stop-color="gray" stop-opacity="0"/></linearGradient><linearGradient id="f"><stop offset="0" stop-color="#b3b3b3"/><stop offset="1" stop-color="#b3b3b3" stop-opacity="0"/></linearGradient><linearGradient id="g"><stop offset="0" stop-color="#e6e6e6"/><stop offset="1" stop-color="#e6e6e6" stop-opacity="0"/></linearGradient><linearGradient id="h"><stop offset="0" stop-color="#afafaf"/><stop offset="1" stop-color="#e6e6e6" stop-opacity="0"/></linearGradient><linearGradient id="i"><stop offset="0" stop-color="#afafaf"/><stop offset="1" stop-color="#e6e6e6" stop-opacity="0"/></linearGradient><linearGradient id="k"><stop offset="0" stop-color="#999"/><stop offset="1" stop-color="#999" stop-opacity="0"/></linearGradient><linearGradient id="l"><stop offset="0" stop-color="#969696"/><stop offset="1" stop-color="#e6e6e6" stop-opacity="0"/></linearGradient><linearGradient id="m"><stop offset="0" stop-color="#afafaf"/><stop offset="1" stop-color="#e6e6e6" stop-opacity="0"/></linearGradient><linearGradient id="n"><stop offset="0" stop-color="#afafaf"/><stop offset="1" stop-color="#e6e6e6" stop-opacity="0"/></linearGradient><linearGradient id="o"><stop offset="0" stop-color="#afafaf"/><stop offset="1" stop-color="#e6e6e6" stop-opacity="0"/></linearGradient><linearGradient id="p"><stop offset="0" stop-color="#bebebe"/><stop offset="1" stop-color="#b3b3b3" stop-opacity="0"/></linearGradient><linearGradient id="q"><stop offset="0" stop-color="#afafaf"/><stop offset="1" stop-color="#e6e6e6" stop-opacity="0"/></linearGradient><linearGradient id="r"><stop offset="0" stop-color="#969696"/><stop offset="1" stop-color="#e6e6e6" stop-opacity="0"/></linearGradient><linearGradient id="t"><stop offset="0" stop-color="#fff"/><stop offset="1" stop-color="#fff" stop-opacity="0"/></linearGradient><linearGradient id="u"><stop offset="0" stop-color="#fff"/><stop offset="1" stop-color="#fff" stop-opacity="0"/></linearGradient><linearGradient id="v"><stop offset="0" stop-color="#fff"/><stop offset="1" stop-color="#fff" stop-opacity="0"/></linearGradient><linearGradient id="w"><stop offset="0" stop-color="#fff"/><stop offset="1" stop-color="#fff" stop-opacity="0"/></linearGradient><linearGradient id="x"><stop offset="0" stop-color="#fff"/><stop offset="1" stop-color="#fff" stop-opacity="0"/></linearGradient><linearGradient id="y"><stop offset="0" stop-color="#fff"/><stop offset="1" stop-color="#fff" stop-opacity="0"/></linearGradient><linearGradient id="z"><stop offset="0" stop-color="#fff"/><stop offset="1" stop-color="#fff" stop-opacity="0"/></linearGradient><linearGradient id="A"><stop offset="0" stop-color="#fff"/><stop offset="1" stop-color="#fff" stop-opacity="0"/></linearGradient><linearGradient id="B"><stop offset="0" stop-color="#fff"/><stop offset="1" stop-color="#fff" stop-opacity="0"/></linearGradient><linearGradient id="C"><stop offset="0" stop-color="#4d4d4d"/><stop offset="1" stop-color="#4d4d4d" stop-opacity="0"/></linearGradient><linearGradient id="D"><stop offset="0" stop-color="#fff"/><stop offset="1" stop-color="#fff" stop-opacity="0"/></linearGradient><linearGradient id="E"><stop offset="0" stop-color="#fff"/><stop offset="1" stop-color="#fff" stop-opacity="0"/></linearGradient><linearGradient id="F"><stop offset="0" stop-color="#fff"/><stop offset="1" stop-color="#fff"/></linearGradient><linearGradient id="H"><stop offset="0"/><stop offset="1" stop-opacity="0"/></linearGradient><radialGradient xlink:href="#g" id="L" cx="333.53" cy="217.58" fx="333.53" fy="217.58" r="29.88" gradientTransform="matrix(-.95122 -.37973 -.79005 1.97905 561.78 -104.78)" gradientUnits="userSpaceOnUse"/><radialGradient xlink:href="#k" id="R" cx="172.61" cy="303.21" fx="172.61" fy="303.21" r="22.63" gradientTransform="matrix(1 0 0 .63329 0 119.5)" gradientUnits="userSpaceOnUse"/><radialGradient xlink:href="#l" id="S" cx="335.09" cy="219.04" fx="335.09" fy="219.04" r="29.88" gradientTransform="matrix(.5466 -.2774 .6405 1.262 11.6 18.44)" gradientUnits="userSpaceOnUse"/><radialGradient r="38.62" fy="25.98" fx="250.46" cy="25.98" cx="250.46" gradientTransform="matrix(-1.18645 .79501 .2118 .3161 435.39 -174.97)" gradientUnits="userSpaceOnUse" id="Q" xlink:href="#n"/><radialGradient r="103.52" fy="230.12" fx="458.03" cy="230.12" cx="458.03" gradientTransform="matrix(.41734 -.01064 .00888 .3481 9.44 55.32)" gradientUnits="userSpaceOnUse" id="P" xlink:href="#p"/><radialGradient r="38.62" fy="25.98" fx="250.46" cy="25.98" cx="250.46" gradientTransform="matrix(1.18645 .79501 -.2118 .3161 -32.89 -175.82)" gradientUnits="userSpaceOnUse" id="T" xlink:href="#q"/><radialGradient r="29.88" fy="219.04" fx="335.09" cy="219.04" cx="335.09" gradientTransform="matrix(-.5466 -.2774 -.6405 1.262 394.97 17.34)" gradientUnits="userSpaceOnUse" id="U" xlink:href="#r"/><radialGradient xlink:href="#I" id="M" cx="171.23" cy="217.68" fx="171.23" fy="217.68" r="19.57" gradientTransform="matrix(1 0 0 1.2781 0 -60.54)" gradientUnits="userSpaceOnUse"/><radialGradient xlink:href="#I" id="N" cx="212.03" cy="217.68" fx="212.03" fy="217.68" r="16.49" gradientTransform="matrix(1 0 0 1.51661 0 -112.46)" gradientUnits="userSpaceOnUse"/><radialGradient xlink:href="#I" id="O" cx="248.86" cy="217.68" fx="248.86" fy="217.68" r="16.7" gradientTransform="matrix(1 0 0 1.49816 0 -108.44)" gradientUnits="userSpaceOnUse"/><radialGradient xlink:href="#J" id="K" cx="206.64" cy="214.43" fx="206.64" fy="214.43" r="190.25" gradientTransform="matrix(.97267 .01618 -.01666 .97474 9.22 2.07)" gradientUnits="userSpaceOnUse"/></defs><path d="M385.62 214.43c0 96.13-80.13 174.05-178.98 174.05-98.84 0-178.98-77.92-178.98-174.05 0-96.12 80.14-174.04 178.98-174.04 98.85 0 178.98 77.92 178.98 174.04z" transform="matrix(1.0811 0 0 1.10435 -22.44 -34.39)" fill="#1a1a1a" stroke="#000" stroke-width="4.58" stroke-linejoin="round"/><path d="M388.2 199.72c0 102.8-83.53 186.14-186.56 186.14-103.02 0-186.54-83.34-186.54-186.14 0-102.8 83.52-186.14 186.54-186.14 103.03 0 186.55 83.34 186.55 186.14z" opacity=".9" fill="#fff"/><path d="M385.62 214.43c0 96.13-80.13 174.05-178.98 174.05-98.84 0-178.98-77.92-178.98-174.05 0-96.12 80.14-174.04 178.98-174.04 98.85 0 178.98 77.92 178.98 174.04z" transform="matrix(1.06413 0 0 1.07868 -20.8 -31.72)" fill="#fff" stroke="#333" stroke-width="1.41" stroke-linejoin="round"/><path d="M385.62 214.43c0 96.13-80.13 174.05-178.98 174.05-98.84 0-178.98-77.92-178.98-174.05 0-96.12 80.14-174.04 178.98-174.04 98.85 0 178.98 77.92 178.98 174.04z" transform="matrix(1.08566 0 0 1.109 -24.35 -36.15)" fill="none" stroke="#000" stroke-width="1.83" stroke-linejoin="round"/><path d="M385.62 214.43a178.98 174.05 0 11-357.96 0 178.98 174.05 0 11357.96 0z" transform="matrix(1.0765 0 0 1.10093 -20.51 -34.7)" opacity=".75" fill="url(#K)"/><g fill-rule="evenodd"><path d="M154.67 33.7c-25.88-.65-52.1 16.49-58.64 42.13a80.9 80.9 0 00-2.26 18.12v66.8h26.25c.1-23.5-.13-46.88.18-70.43.8-14.95 12.36-30.72 28.4-30.53.12 23.8-.24 47.61.19 71.4 1.37 19.35 19.7 35.37 39.1 33.73 12.13-.3 24.34.7 36.39-.76 18.33-3.44 31.03-22.12 29.32-40.38v-63.9c16.68-1.21 29.34 14.98 30.08 30.54.3 23.55.08 46.93.17 70.43h26.25V89.97c-.86-7.64-2.07-16.99-6.2-24.35-10.75-21.8-35.87-33.55-59.56-31.78-6.92-.88-14.37 3.8-16.26 10.36.11 28.08.2 56.16-.02 84.23-.79 11.76-12.38 20.75-23.94 19.26-8.18.36-17.43.01-23-7.02-7.53-7.94-5-19.32-5.45-29.2.02-22.8-.07-45.59.13-68.35-3.42-6.92-11.03-10.5-18.56-9.36l-1.25-.02-1.32-.04h0z" stroke="#fff" stroke-width="1.05"/><path d="M107.27 156.26v177.85c-35.13-3.86-62.74-42.2-62.74-88.93 0-46.73 27.61-85.06 62.74-88.92z" opacity=".97" fill="url(#L)"/></g><g fill-rule="evenodd" stroke="#fff"><path d="M299.59 329.32c-.73 0-3.48-.6-4.14-.17 0 0-1.08 3.17-4.83 5.95-3.3 2.45-6.42 4.8-9.76 7-3 1.98-6.23 4.11-9.25 5.57-2.38 1.14-4.32 1.3-4.32 1.3h-33.83a3.8 3.8 0 00-3.85 3.75v.92a3.82 3.82 0 003.85 3.77h35.57c.82 0 3.78-.86 5.54-1.63 4.38-1.93 7.24-4.38 12.3-7.38 5.36-3.44 15.3-11.43 15.3-11.43a3.69 3.69 0 001.06-5.19l-.5-.78a3.8 3.8 0 00-3.14-1.68z" stroke-width="1.05"/><path d="M297.3 156.37V334.2c35.14-3.85 62.74-42.19 62.74-88.92 0-46.73-27.6-85.07-62.73-88.92zM106.18 157.31v177.85c-35.13-3.86-62.74-42.2-62.74-88.92 0-46.74 27.61-85.07 62.74-88.93z" opacity=".97" stroke-width="1.05"/><path d="M194.74 325.86a22.13 13.83 0 11-44.26 0 22.13 13.83 0 1144.26 0z" transform="matrix(1.30479 0 0 1.21464 -20.46 -43.8)" opacity=".97"/><rect width="13.33" height="171.95" x="274.72" y="146.09" rx="3.89" ry="3.54" transform="matrix(1.04333 0 0 1.05002 -4.66 .1)" opacity=".97" stroke-width="1.05"/><rect width="13.06" height="171.96" x="106.56" y="147.08" rx="3.81" ry="3.54" transform="matrix(1.04333 0 0 1.05002 -3.83 .1)" opacity=".97" stroke-width="1.04"/></g><g><path fill-rule="evenodd" d="M131.64 188.83h140.83v111.89H131.64z"/><path style="text-align:center;-inkscape-font-specification:Tahoma Bold" d="M189.84 226.7c0 2.3-.43 4.34-1.3 6.09a12.45 12.45 0 01-3.54 4.34 16.36 16.36 0 01-5.77 2.94c-2.09.58-4.75.87-7.98.87h-18.63v-46.53h16.44c3.42 0 6 .13 7.77.4 1.76.25 3.41.8 4.95 1.63 1.67.9 2.91 2.1 3.74 3.6.82 1.5 1.23 3.23 1.23 5.18 0 2.28-.57 4.3-1.7 6.07a10.02 10.02 0 01-4.7 3.9v.25c2.87.6 5.17 1.84 6.9 3.7 1.73 1.87 2.6 4.39 2.6 7.55zm-14.97-19.13c0-.75-.19-1.52-.57-2.31a3.49 3.49 0 00-1.8-1.72 7.42 7.42 0 00-2.73-.55c-1.06-.03-2.62-.05-4.7-.05h-.82v9.85h1.47c2 0 3.4-.02 4.2-.07.8-.04 1.63-.26 2.49-.65a3.76 3.76 0 001.93-1.81c.36-.78.53-1.67.53-2.7zm2.94 18.9a5.7 5.7 0 00-.87-3.37 5.31 5.31 0 00-2.63-1.84 9.08 9.08 0 00-2.92-.46c-1.24-.03-2.9-.04-4.98-.04h-2.16v11.65h.63c3.04 0 5.14-.02 6.3-.06a9.86 9.86 0 003.57-.84 4.65 4.65 0 002.33-2.02c.49-.89.73-1.9.73-3.02z" transform="matrix(1.10072 0 0 2.00007 -23.81 -190.28)" font-size="64" font-weight="700" text-anchor="middle" fill="url(#M)" font-family="Tahoma"/><path style="text-align:center;-inkscape-font-specification:Tahoma Bold" d="M180.67 262.8c0 4.63-.48 8.7-1.44 12.2s-2.26 6.39-3.89 8.68c-1.92 2.75-4.04 4.7-6.34 5.88-2.3 1.16-5.24 1.75-8.8 1.75h-20.5v-93.07h18.1c3.76 0 6.61.26 8.55.78 1.94.52 3.75 1.62 5.45 3.28 1.83 1.8 3.2 4.2 4.11 7.2.9 3 1.36 6.45 1.36 10.37 0 4.54-.63 8.58-1.88 12.12-1.25 3.54-2.97 6.15-5.17 7.81v.5c3.16 1.21 5.7 3.68 7.6 7.41 1.9 3.73 2.85 8.76 2.85 15.1zm-16.47-38.25c0-1.5-.21-3.04-.64-4.62-.42-1.58-1.08-2.73-1.98-3.44a5.2 5.2 0 00-3-1.1c-1.16-.06-2.89-.09-5.18-.09h-.9V235h1.62c2.2 0 3.74-.05 4.63-.13.88-.09 1.79-.52 2.73-1.32a6.77 6.77 0 002.13-3.62c.4-1.54.59-3.33.59-5.38zm3.23 37.82c0-2.88-.32-5.13-.96-6.75a7.54 7.54 0 00-2.9-3.69 6.07 6.07 0 00-3.2-.9c-1.37-.07-3.2-.1-5.5-.1h-2.37v23.31h.7c3.34 0 5.65-.04 6.94-.12a7.17 7.17 0 003.92-1.69 7.84 7.84 0 002.56-4.03c.54-1.77.81-3.78.81-6.03z" font-size="64" font-weight="700" text-anchor="middle" fill="#fff" font-family="Tahoma"/><path style="text-align:center;-inkscape-font-specification:Tahoma Bold" d="M227.56 240.94H196.5v-46.53h11.69v37.66h19.37z" transform="matrix(1.10072 0 0 2.00007 -23.81 -190.28)" font-size="64" font-weight="700" text-anchor="middle" fill="url(#N)" font-family="Tahoma"/><path d="M187.31 197.56v94.53h35.57v-19.25H201.5v-75.28h-14.19z" fill="#fff"/><path style="text-align:center;-inkscape-font-specification:Tahoma Bold" d="M233.13 240.94v-46.53h31.46v8.88h-19.84v8.15h18.28v8.88h-18.28v11.75h19.84v8.87z" transform="matrix(1.10072 0 0 2.00007 -23.81 -190.28)" font-size="64" font-weight="700" text-anchor="middle" fill="url(#O)" font-family="Tahoma"/><path d="M227.81 197.5v94.53h35.57v-19.25H242V250.5h19.66v-18.66H242v-15.09h21.38V197.5H227.8z" fill="#fff"/></g><g fill-rule="evenodd"><path d="M155.37 33.01c-25.88-.65-52.1 16.49-58.65 42.13a80.9 80.9 0 00-2.25 18.12v66.8h26.25c.1-23.5-.13-46.88.18-70.43.8-14.95 12.36-30.72 28.4-30.53.12 23.8-.24 47.61.19 71.4 1.37 19.35 19.7 35.37 39.1 33.73 12.13-.3 24.34.7 36.38-.76 18.34-3.44 31.03-22.12 29.33-40.38V59.2c16.68-1.21 29.33 14.98 30.07 30.54.31 23.55.09 46.93.18 70.43h26.25V89.28c-.86-7.64-2.07-16.99-6.2-24.35-10.75-21.8-35.87-33.55-59.56-31.78-6.92-.88-14.37 3.8-16.26 10.36.11 28.08.2 56.16-.02 84.23-.79 11.76-12.38 20.75-23.94 19.26-8.19.36-17.43.02-23-7.02-7.53-7.94-5-19.32-5.45-29.2.02-22.8-.08-45.59.13-68.35-3.42-6.92-11.03-10.5-18.56-9.36l-1.25-.02-1.32-.04z" fill="url(#P)"/><path d="M154.53 34.27c-31.65 0-56.17 21.23-59.98 48.76h26.97c3.65-12.43 13.12-21.52 24.51-22.58a4.25 4.25 0 012.92-1.15h26.61l.1-15.61s-2.38-3.73-4.3-5.48a14.63 14.63 0 00-8-3.74c-2.43-.27-5.2-.05-8.83-.2z" fill="url(#Q)"/><path d="M194.74 325.86a22.13 13.83 0 11-44.26 0 22.13 13.83 0 1144.26 0z" transform="matrix(1.30479 0 0 1.21464 -20.43 -43.9)" opacity=".97" fill="url(#R)"/><path d="M298.66 157.26V335.1c35.13-3.85 62.73-42.19 62.73-88.92 0-46.74-27.6-85.07-62.73-88.92z" opacity=".97" fill="url(#S)"/><path d="M247.97 33.42c31.65 0 56.17 21.24 59.98 48.76h-26.97c-3.65-12.42-13.12-21.52-24.51-22.57a4.25 4.25 0 00-2.92-1.15h-26.61l-.1-15.62s2.38-3.73 4.3-5.48a14.63 14.63 0 018-3.74c2.43-.26 5.2-.04 8.83-.2z" fill="url(#T)"/><path d="M107.92 156.15V334c-35.13-3.86-62.74-42.2-62.74-88.93 0-46.73 27.61-85.06 62.74-88.92z" opacity=".97" fill="url(#U)"/></g></svg>