<?xml version="1.0" standalone="no"?>
<!DOCTYPE svg PUBLIC "-//W3C//DTD SVG 20010904//EN"
 "http://www.w3.org/TR/2001/REC-SVG-20010904/DTD/svg10.dtd">
<svg version="1.0" xmlns="http://www.w3.org/2000/svg"
 width="626.000000pt" height="626.000000pt" viewBox="0 0 626.000000 626.000000"
 preserveAspectRatio="xMidYMid meet">
<metadata>
Created by potrace 1.11, written by Peter Selinger 2001-2013
</metadata>
<g transform="translate(0.000000,626.000000) scale(0.100000,-0.100000)"
fill="#000000" stroke="none">
<path d="M5320 3315 l0 -2345 240 0 240 0 0 2345 0 2345 -240 0 -240 0 0
-2345z"/>
<path d="M2710 5239 c-275 -26 -531 -135 -720 -304 -66 -59 -150 -147 -169
-175 -9 -14 -30 -43 -46 -66 -79 -105 -170 -321 -202 -481 -24 -120 -23 -366
1 -483 34 -164 104 -333 193 -468 l36 -54 -108 -108 -107 -108 -82 -4 c-144
-8 -121 11 -698 -566 -570 -570 -556 -553 -566 -689 -7 -100 21 -174 94 -247
71 -73 140 -99 244 -94 139 7 127 -3 677 547 270 271 504 508 519 528 41 54
64 125 64 199 l0 65 108 111 109 110 54 -35 c147 -94 290 -154 449 -190 142
-31 396 -31 535 2 256 60 465 176 642 359 234 241 355 542 356 882 0 326 -107
611 -318 849 -263 296 -672 458 -1065 420z m370 -394 c335 -107 564 -357 636
-693 7 -37 14 -119 14 -183 0 -354 -200 -668 -524 -820 -439 -205 -972 -23
-1189 408 -40 78 -75 176 -87 244 -15 79 -14 275 0 347 31 152 101 294 203
412 143 165 311 264 527 310 25 5 110 8 190 6 125 -3 157 -7 230 -31z"/>
<path d="M4317 4893 c-4 -3 -7 -130 -7 -282 0 -243 3 -288 22 -381 31 -152 31
-391 0 -552 l-22 -117 0 -1296 0 -1295 240 0 240 0 0 1965 0 1965 -233 0
c-129 0 -237 -3 -240 -7z"/>
<path d="M3677 2679 c-81 -56 -247 -141 -339 -174 l-78 -28 0 -753 0 -754 240
0 240 0 0 875 c0 481 -1 875 -2 875 -2 0 -29 -19 -61 -41z"/>
<path d="M2170 1725 l0 -755 240 0 240 0 0 729 0 728 -52 7 c-28 4 -88 16
-132 27 -54 12 -117 19 -188 19 l-108 0 0 -755z"/>
<path d="M1243 1537 l-183 -184 0 -191 0 -192 240 0 240 0 0 375 0 375 -57 0
-58 0 -182 -183z"/>
<path d="M0 710 l0 -110 3130 0 3130 0 0 110 0 110 -3130 0 -3130 0 0 -110z"/>
</g>
</svg>
