<svg xmlns="http://www.w3.org/2000/svg" viewBox="0 0 2000 1500"><defs/><path fill="#0280cf" d="M0 0h2000v1500H0z"/><defs><radialGradient id="c" gradientUnits="objectBoundingBox"><stop offset="0" stop-color="#021f30"/><stop offset="1" stop-color="#0280cf"/></radialGradient><linearGradient id="a" x1="0" x2="1550" y1="750" y2="750" gradientUnits="userSpaceOnUse"><stop offset="0" stop-color="#025080"/><stop offset="1" stop-color="#0280cf"/></linearGradient><path id="b" fill="url(#a)" d="M1549 52a1562 1562 0 01-143 572 1537 1537 0 01-839 778 1504 1504 0 01-567 98 1502 1502 0 00808-258 1477 1477 0 00612-916c18-92 28-185 29-278 0-27 23-48 51-48s49 22 49 50v2z"/><g id="d"><use href="#b" transform="rotate(60) scale(.12)"/><use href="#b" transform="rotate(10) scale(.2)"/><use href="#b" transform="rotate(40) scale(.25)"/><use href="#b" transform="rotate(-20) scale(.3)"/><use href="#b" transform="rotate(-30) scale(.4)"/><use href="#b" transform="rotate(20) scale(.5)"/><use href="#b" transform="rotate(60) scale(.6)"/><use href="#b" transform="rotate(10) scale(.7)"/><use href="#b" transform="rotate(-40) scale(.835)"/><use href="#b" transform="rotate(40) scale(.9)"/><use href="#b" transform="rotate(25) scale(1.05)"/><use href="#b" transform="rotate(8) scale(1.2)"/><use href="#b" transform="rotate(-60) scale(1.333)"/><use href="#b" transform="rotate(-30) scale(1.45)"/><use href="#b" transform="rotate(10) scale(1.6)"/></g></defs><g><circle r="3000" fill="url(#c)"/><g fill="url(#c)" opacity=".5"><circle r="2000"/><circle r="1800"/><circle r="1700"/><circle r="1651"/><circle r="1450"/><circle r="1250"/><circle r="1175"/><circle r="900"/><circle r="750"/><circle r="500"/><circle r="380"/><circle r="250"/></g><g><use href="#d" transform="rotate(10)"/><use href="#d" transform="rotate(120)"/><use href="#d" transform="rotate(240)"/></g><circle r="3000" fill="url(#c)" fill-opacity=".1"/></g></svg>