<svg xmlns="http://www.w3.org/2000/svg" viewBox="0 0 1953 603">
  <path fill="#0280cf" d="M121.16 10.38c33.78-11.89 71.09-13.39 105.73-4.4 29.55 7.63 57.05 22.94 79.17 43.97 20.31 19.21 36.08 43.19 45.68 69.46-21.58-7.18-44.99-7.14-67.18-3.02-24.5 4.6-47.81 14.21-69.55 26.26-9.94-19.9-22.83-38.38-38.34-54.34-17.71-18.16-40.12-32.96-65.54-37.08-23.48-4.03-47.64 2.01-68.36 13.17 20.75-24.51 48.07-43.42 78.39-54.02zM9.42 123.21c29.81-14.27 63.9-20.93 96.73-15.47 30.84 4.92 59.01 21.2 81.04 43-27.44-7.38-55.66-12.53-84.14-12.82-29.78-.31-60.43 5.29-86.08 21.07-5.96 3.64-11.58 7.81-16.86 12.38.93-16.37 4.08-32.61 9.31-48.16zm1727.05 14.54c8.08-2.22 17.18-1.09 24.24 3.56 6.25 4.09 11.21 10.41 12.94 17.76 1.61 7 .93 14.66-2.52 21.02-4.78 8.75-14 15.14-24.05 15.73-10.97 1.06-22.24-4.57-27.92-14.02-4.43-7.01-5.37-15.92-3.18-23.85 2.73-9.68 10.79-17.57 20.49-20.2zM235.03 164.88c24.79-5.77 51.07-6.38 75.74.38 18.81 5.11 36.48 14.26 51.66 26.45-.79 13.96-2.77 27.83-5.52 41.53-20.49-23.09-47.42-39.45-75.49-51.72-15.07-6.57-30.62-12.01-46.39-16.64zM8.65 247.05c50-37.53 110.6-61.22 173.07-65.76-13.39 11.7-23.6 26.5-32.84 41.56-16.13 26.89-28.92 55.62-40.55 84.7-13.71 34.57-25.57 69.86-36.23 105.5-16.32-33.28-31.41-67.21-44.11-102.04-7.52-20.97-14.52-42.2-19.34-63.96zm178.24 13.08c10.2-23.24 21.63-46 35.12-67.52 46.62 32.92 83.68 78.81 107.53 130.57-16.57 43.29-36.61 85.18-58.04 126.25-27.64 52.48-57.56 103.79-90.2 153.32l-48.87-78.28c-.69-90.61 18.37-181.26 54.46-264.34zm1667.19-44.21c19.48-3.97 40.22-2.89 58.86 4.24 16.04 5.68 29.32 18.26 35.76 34.02l-39.84 16.21c-2.8-5.63-7.01-10.67-12.55-13.76-10.48-5.86-23.57-7.54-34.88-3.15-3.94 1.61-8.04 3.92-9.92 7.93-1.93 4.07-.58 9.27 3.01 11.98 3.61 2.75 7.96 4.35 12.21 5.86 18.86 6.12 39.25 7.66 57 17 10 5.14 18.72 13.15 23.7 23.33 3.37 6.64 4.56 14.11 5.21 21.45-.74 8.72-2.93 17.47-7.7 24.9-9.79 15.85-27.13 25.69-45.02 29.57-15.1 3.11-30.91 2.92-45.93-.49-15.63-3.81-30.46-11.78-41.16-23.93-5.91-6.78-10.76-14.52-14.05-22.891l41.27-17.65c3.66 8.141 9.14 15.76 16.89 20.44 7.41 4.68 16.36 6.54 25.05 5.92 7.72-.41 16.08-2.42 21.4-8.45 3.52-3.9 3.29-10.11.39-14.3-2.47-3.611-6.5-5.7-10.43-7.33-18.99-7.44-40.28-7.31-58.61-16.68-12.5-6.21-23.57-16.73-27.62-30.38-3.47-13.16-1.54-28 6.41-39.22 9.26-13.53 24.88-21.24 40.55-24.62zm-132.52 3.43l46.23-.02v172.68h-46.22l-.01-172.66z"/>
  <path fill="#fff" d="M948.09 139.33l46.21.02-.01 67.69c.41 11.11-1.82 22.07-2.81 33.09l2.72-.08c7.72-12.39 20.74-21.2 34.9-24.47 18.17-4.07 37.84-1.78 54.24 7.22 22.25 11.65 38.04 33.72 43.86 57.95 6.74 28.42 1.9 60.12-15.86 83.71-9.06 12.11-21.37 21.79-35.37 27.55-13.95 5.85-29.61 7-44.42 4.27-15.06-2.85-29.25-11.84-37.26-25.04l-2.81-.04v20.82h-43.39V139.33m78.39 118.35c-12.36 2.89-23.15 11.43-28.97 22.69-5.13 9.24-6.67 20.08-5.83 30.51.94 13.25 7.29 26.22 17.76 34.51 11.11 8.83 26.5 11.75 40.15 8 12.2-3.35 22.81-12.01 28.5-23.32 5.45-10.15 6.74-22.12 5.09-33.41-2.18-14.16-10.71-27.47-23.35-34.46-9.99-5.76-22.19-7.27-33.35-4.52zm-255.1-20.43c13.84-12.76 31.75-21.29 50.56-23.07 19.49-1.85 39.95 1.09 56.95 11.23 15.26 8.78 26.72 23.35 32.86 39.74 6.09 16.24 8.03 34 6.04 51.21-43.36-.01-86.72-.02-130.09 0 1.35 11.5 6.83 22.61 15.9 29.95 11.64 9.7 27.95 12.03 42.51 9.25 13.56-2.53 24.59-12.57 31.21-24.3l38.43 19.08c-8.74 15.45-21.65 28.58-37.21 37.17-15.67 8.47-33.93 10.94-51.53 9.95-20.15-1.13-39.95-8.96-55.05-22.41-13.53-11.97-23.01-28.31-27.14-45.86-3.38-14.75-3.56-30.29-.25-45.07 4.07-17.8 13.34-34.48 26.81-46.87m40.7 18.81c-10.88 5.49-18.57 16.01-21.92 27.59l83.65-.01c-1.87-15.23-14.62-27.54-29.26-30.95-10.77-2.38-22.57-1.84-32.47 3.37zm419.04-41.92c18.17-1.69 37.01.88 53.42 9.15 16.67 8.11 30.53 21.82 38.73 38.46 8.96 17.58 11.54 37.93 9.18 57.39-2.2 18.15-9.79 35.73-22.02 49.37-13.46 15.04-32.4 24.83-52.28 27.91-19.47 2.91-40.01.96-57.91-7.58-15.71-7.29-29.16-19.41-37.78-34.45-11.5-19.55-14.75-43.2-11.32-65.43 3.02-19.32 12.22-37.82 26.54-51.23 14.48-13.6 33.7-21.83 53.44-23.59m-.68 43.54c-12.61 3.06-23.55 12.03-29.11 23.74-5.43 10.94-6.26 23.69-4.25 35.6 2.43 13.79 11.1 26.58 23.69 32.98 13.37 7.02 30.23 6.55 43.3-.98 11.71-6.56 19.6-18.82 21.98-31.91 2.56-14.57.49-30.56-8.45-42.69-10.37-14.54-29.98-21.18-47.16-16.74zm172.43-40.13c18.23-5.05 37.66-4.9 56.17-1.45 17.22 3.32 34.14 12.04 44.09 26.89 9.74 14.25 12.31 32.04 11.98 48.96l-.01 100.07h-45.51l-.01-18.36-2.79.02c-5.77 6.97-12.77 12.91-20.56 17.51-9.41 5.4-20.56 6.74-31.24 6.44-17.96-.55-36.03-7.98-48.06-21.53-11.98-13.46-16.14-32.75-12.48-50.21 3.08-15.07 13.38-28.07 26.58-35.71 14.96-8.82 32.81-11.27 49.93-10.39 13.24.24 26.28 3.29 38.63 7.95.53-8.361-.85-17.34-6.72-23.72-11.87-13.65-32.61-15.9-48.92-9.95-9.12 3.33-16.88 9.62-23.02 17.04l-33.52-22.93c11.48-14.61 27.48-25.72 45.46-30.63m19.93 96.78c-7 1.27-13.81 4.56-18.37 10.13-5.7 6.62-6.68 16.87-2.31 24.42 3.43 5.69 9.46 9.34 15.67 11.32 14.17 4.05 30.24-.52 40.55-10.94 7.14-7.23 11.22-17.31 11.26-27.45-14.42-6.98-30.9-10.32-46.8-7.48zm171.21-98.4c19.93-4.07 41.23-2.87 60.2 4.74 15.52 5.79 28.2 18.21 34.49 33.51l-39.85 16.22c-2.76-5.58-6.91-10.58-12.37-13.67-10.72-6.07-24.25-7.74-35.77-2.95-4.15 1.78-8.55 4.56-9.75 9.21-1.23 4.32.98 9.02 4.76 11.28 7.45 4.55 16.06 6.66 24.48 8.63 17 4.28 35.04 7 49.84 17.11 13.01 8.51 21.93 23.31 22.14 39.01.93 17.26-8.97 33.51-22.64 43.42-15.06 11.06-34.1 15.6-52.58 15.23-18.33 0-36.92-4.97-51.95-15.66-11.82-8.38-20.88-20.41-26.24-33.83l41.28-17.64c3.76 8.39 9.5 16.23 17.6 20.87 7.55 4.57 16.6 6.18 25.33 5.42 7.39-.51 15.3-2.6 20.38-8.35 3.54-3.9 3.33-10.12.43-14.31-2.49-3.66-6.58-5.76-10.55-7.4-18.95-7.38-40.17-7.28-58.45-16.61-12.52-6.21-23.63-16.74-27.68-30.43-3.46-13.15-1.52-28 6.43-39.2 9.25-13.5 24.83-21.21 40.47-24.6zm-1140.94 3.4h51.86L533.5 327.6l2.42.02 34.24-108.29h47.62l34.56 108.26 2.44.03 28.23-108.29 51.15.01-55.35 172.65-49.76.01-34.54-108.93-2.46-.04-34.52 108.93-49.12.02-55.34-172.65z"/>
</svg>